<svg xmlns="http://www.w3.org/2000/svg" viewBox="0 0 800 500">
  <defs>
    <linearGradient id="bgGrad4" x1="0%" y1="0%" x2="100%" y2="100%">
      <stop offset="0%" style="stop-color:#0d0d14"/>
      <stop offset="100%" style="stop-color:#12121a"/>
    </linearGradient>
    <linearGradient id="tableGrad" x1="0%" y1="0%" x2="0%" y2="100%">
      <stop offset="0%" style="stop-color:#1e1e28"/>
      <stop offset="100%" style="stop-color:#151520"/>
    </linearGradient>
    <linearGradient id="topLight" x1="50%" y1="0%" x2="50%" y2="100%">
      <stop offset="0%" style="stop-color:#f59e0b;stop-opacity:0.1"/>
      <stop offset="100%" style="stop-color:#f59e0b;stop-opacity:0"/>
    </linearGradient>
    <filter id="shadow4">
      <feDropShadow dx="0" dy="4" stdDeviation="8" flood-color="#000" flood-opacity="0.4"/>
    </filter>
    <filter id="paperShadow">
      <feDropShadow dx="2" dy="2" stdDeviation="3" flood-color="#000" flood-opacity="0.3"/>
    </filter>
  </defs>
  
  <!-- Background -->
  <rect width="800" height="500" fill="url(#bgGrad4)"/>
  
  <!-- Overhead light suggestion -->
  <ellipse cx="400" cy="0" rx="300" ry="150" fill="url(#topLight)"/>
  
  <!-- Conference table -->
  <ellipse cx="400" cy="320" rx="320" ry="100" fill="url(#tableGrad)" filter="url(#shadow4)"/>
  <ellipse cx="400" cy="320" rx="300" ry="90" fill="#1a1a24"/>
  
  <!-- Table reflection/shine -->
  <ellipse cx="400" cy="300" rx="200" ry="40" fill="#222230" opacity="0.3"/>
  
  <!-- Scattered documents -->
  <!-- Document 1 - Asset list with question marks -->
  <g transform="translate(280, 260) rotate(-5)">
    <rect x="0" y="0" width="100" height="130" fill="#f8fafc" filter="url(#paperShadow)"/>
    <text x="10" y="20" font-family="Arial" font-size="8" fill="#1a1a20" font-weight="bold">DIGITAL ASSETS</text>
    <line x1="10" y1="25" x2="90" y2="25" stroke="#e2e8f0" stroke-width="1"/>
    <text x="10" y="40" font-family="Arial" font-size="7" fill="#64748b">Domain: </text>
    <text x="50" y="40" font-family="Arial" font-size="7" fill="#ef4444">???</text>
    <text x="10" y="55" font-family="Arial" font-size="7" fill="#64748b">Hosting: </text>
    <text x="50" y="55" font-family="Arial" font-size="7" fill="#ef4444">???</text>
    <text x="10" y="70" font-family="Arial" font-size="7" fill="#64748b">Social: </text>
    <text x="50" y="70" font-family="Arial" font-size="7" fill="#ef4444">???</text>
    <text x="10" y="85" font-family="Arial" font-size="7" fill="#64748b">Email: </text>
    <text x="50" y="85" font-family="Arial" font-size="7" fill="#ef4444">???</text>
    <text x="10" y="100" font-family="Arial" font-size="7" fill="#64748b">Software: </text>
    <text x="50" y="100" font-family="Arial" font-size="7" fill="#ef4444">???</text>
    <!-- Red circle/mark -->
    <circle cx="80" cy="70" r="15" fill="none" stroke="#ef4444" stroke-width="2" opacity="0.6"/>
  </g>
  
  <!-- Document 2 - Contract -->
  <g transform="translate(420, 250) rotate(8)">
    <rect x="0" y="0" width="90" height="120" fill="#f8fafc" filter="url(#paperShadow)"/>
    <text x="10" y="18" font-family="Arial" font-size="7" fill="#1a1a20" font-weight="bold">PURCHASE AGREEMENT</text>
    <line x1="10" y1="23" x2="80" y2="23" stroke="#e2e8f0" stroke-width="1"/>
    <rect x="10" y="30" width="70" height="4" fill="#e2e8f0"/>
    <rect x="10" y="38" width="60" height="4" fill="#e2e8f0"/>
    <rect x="10" y="46" width="65" height="4" fill="#e2e8f0"/>
    <rect x="10" y="54" width="55" height="4" fill="#e2e8f0"/>
    <rect x="10" y="70" width="70" height="4" fill="#e2e8f0"/>
    <rect x="10" y="78" width="50" height="4" fill="#e2e8f0"/>
    <!-- Signature line empty -->
    <line x1="10" y1="105" x2="60" y2="105" stroke="#374151" stroke-width="1"/>
    <text x="10" y="115" font-family="Arial" font-size="5" fill="#64748b">Signature</text>
    <!-- Pen next to it -->
    <rect x="65" y="95" width="3" height="25" fill="#1a1a20" transform="rotate(-30 65 95)"/>
  </g>
  
  <!-- Document 3 - Due diligence checklist -->
  <g transform="translate(200, 290) rotate(-12)">
    <rect x="0" y="0" width="80" height="100" fill="#fef3c7" filter="url(#paperShadow)"/>
    <text x="8" y="15" font-family="Arial" font-size="6" fill="#92400e" font-weight="bold">DUE DILIGENCE</text>
    <rect x="8" y="25" width="8" height="8" fill="none" stroke="#92400e" stroke-width="1"/>
    <text x="20" y="32" font-family="Arial" font-size="6" fill="#78350f">Domain ownership</text>
    <rect x="8" y="38" width="8" height="8" fill="none" stroke="#92400e" stroke-width="1"/>
    <text x="20" y="45" font-family="Arial" font-size="6" fill="#78350f">Hosting access</text>
    <rect x="8" y="51" width="8" height="8" fill="none" stroke="#92400e" stroke-width="1"/>
    <text x="20" y="58" font-family="Arial" font-size="6" fill="#78350f">Customer data</text>
    <rect x="8" y="64" width="8" height="8" fill="none" stroke="#92400e" stroke-width="1"/>
    <text x="20" y="71" font-family="Arial" font-size="6" fill="#78350f">Contracts</text>
    <rect x="8" y="77" width="8" height="8" fill="none" stroke="#92400e" stroke-width="1"/>
    <text x="20" y="84" font-family="Arial" font-size="6" fill="#78350f">Subscriptions</text>
    <!-- None checked! -->
  </g>
  
  <!-- Laptop showing spreadsheet with gaps -->
  <g transform="translate(480, 220)">
    <rect x="0" y="50" width="130" height="8" rx="2" fill="#252530"/>
    <rect x="10" y="0" width="110" height="55" rx="4" fill="#1a1a22" filter="url(#shadow4)"/>
    <rect x="15" y="5" width="100" height="42" rx="2" fill="#0d0d12"/>
    <!-- Spreadsheet grid -->
    <line x1="15" y1="15" x2="115" y2="15" stroke="#1e1e28" stroke-width="0.5"/>
    <line x1="15" y1="25" x2="115" y2="25" stroke="#1e1e28" stroke-width="0.5"/>
    <line x1="15" y1="35" x2="115" y2="35" stroke="#1e1e28" stroke-width="0.5"/>
    <line x1="45" y1="5" x2="45" y2="47" stroke="#1e1e28" stroke-width="0.5"/>
    <line x1="80" y1="5" x2="80" y2="47" stroke="#1e1e28" stroke-width="0.5"/>
    <!-- Headers -->
    <text x="20" y="12" font-family="monospace" font-size="5" fill="#64748b">Asset</text>
    <text x="50" y="12" font-family="monospace" font-size="5" fill="#64748b">Location</text>
    <text x="85" y="12" font-family="monospace" font-size="5" fill="#64748b">Access</text>
    <!-- Data with gaps -->
    <text x="20" y="22" font-family="monospace" font-size="5" fill="#94a3b8">Domain</text>
    <text x="55" y="22" font-family="monospace" font-size="5" fill="#ef4444">?</text>
    <text x="92" y="22" font-family="monospace" font-size="5" fill="#ef4444">?</text>
    <text x="20" y="32" font-family="monospace" font-size="5" fill="#94a3b8">Hosting</text>
    <text x="55" y="32" font-family="monospace" font-size="5" fill="#ef4444">?</text>
    <text x="92" y="32" font-family="monospace" font-size="5" fill="#ef4444">?</text>
    <text x="20" y="42" font-family="monospace" font-size="5" fill="#94a3b8">CRM</text>
    <text x="55" y="42" font-family="monospace" font-size="5" fill="#ef4444">?</text>
    <text x="92" y="42" font-family="monospace" font-size="5" fill="#ef4444">?</text>
  </g>
  
  <!-- Person 1 silhouette (seller - looking stressed) -->
  <g transform="translate(250, 150)">
    <ellipse cx="0" cy="0" rx="25" ry="30" fill="#252530"/>
    <ellipse cx="-30" cy="60" rx="35" ry="45" fill="#252530"/>
    <!-- Hand on head gesture -->
    <ellipse cx="-10" cy="-10" rx="8" ry="10" fill="#252530"/>
  </g>
  
  <!-- Person 2 silhouette (buyer - arms crossed, waiting) -->
  <g transform="translate(550, 150)">
    <ellipse cx="0" cy="0" rx="25" ry="30" fill="#2a2a38"/>
    <ellipse cx="30" cy="60" rx="35" ry="45" fill="#2a2a38"/>
    <!-- Crossed arms suggestion -->
    <rect x="5" y="40" width="40" height="12" rx="6" fill="#2a2a38"/>
  </g>
  
  <!-- Clock showing time pressure -->
  <g transform="translate(680, 100)">
    <circle cx="0" cy="0" r="30" fill="#1a1a22" stroke="#2a2a35" stroke-width="2"/>
    <circle cx="0" cy="0" r="25" fill="#0d0d12"/>
    <!-- Clock hands -->
    <line x1="0" y1="0" x2="0" y2="-15" stroke="#f59e0b" stroke-width="2" stroke-linecap="round"/>
    <line x1="0" y1="0" x2="10" y2="5" stroke="#64748b" stroke-width="1.5" stroke-linecap="round"/>
    <circle cx="0" cy="0" r="3" fill="#f59e0b"/>
    <!-- Hour markers -->
    <circle cx="0" cy="-20" r="1.5" fill="#475569"/>
    <circle cx="17" cy="-10" r="1.5" fill="#475569"/>
    <circle cx="17" cy="10" r="1.5" fill="#475569"/>
    <circle cx="0" cy="20" r="1.5" fill="#475569"/>
  </g>
  
  <!-- "Deal stalled" indicator -->
  <g transform="translate(650, 160)">
    <rect x="0" y="0" width="80" height="24" rx="4" fill="#1c1917" stroke="#78350f" stroke-width="1"/>
    <text x="40" y="16" font-family="Arial" font-size="8" fill="#f59e0b" text-anchor="middle" font-weight="bold">DEAL STALLED</text>
  </g>
  
  <!-- Dramatic text -->
  <text x="400" y="470" font-family="Georgia, serif" font-size="18" fill="#f59e0b" text-anchor="middle" opacity="0.6" font-style="italic">Not ready.</text>
</svg>